<?xml version="1.0" standalone="no"?>
<!DOCTYPE svg PUBLIC "-//W3C//DTD SVG 20010904//EN"
 "http://www.w3.org/TR/2001/REC-SVG-20010904/DTD/svg10.dtd">
<svg version="1.0" xmlns="http://www.w3.org/2000/svg"
 width="1470.000000pt" height="382.000000pt" viewBox="0 0 1470.000000 382.000000"
 preserveAspectRatio="xMidYMid meet">

<g transform="translate(0.000000,382.000000) scale(0.100000,-0.100000)"
fill="#000000" stroke="none">
<path d="M2390 3670 c-19 -5 -36 -13 -38 -19 -2 -6 -34 -46 -70 -90 -37 -44
-96 -132 -132 -198 -60 -109 -77 -131 -233 -293 -249 -258 -304 -338 -465
-665 -64 -130 -82 -177 -82 -216 0 -15 -5 -31 -11 -34 -7 -5 -8 5 -4 29 6 30
5 35 -8 30 -16 -6 -19 -14 -37 -120 -13 -77 -17 -248 -7 -296 5 -25 15 -39 31
-45 13 -4 83 -73 157 -152 240 -258 462 -476 559 -548 184 -137 356 -210 560
-237 138 -19 634 -50 666 -42 12 3 48 28 80 55 54 46 109 68 127 52 4 -4 11
-52 17 -106 8 -86 15 -111 49 -180 22 -44 59 -101 81 -127 70 -81 373 -264
478 -288 29 -7 55 -10 57 -8 12 11 -49 99 -120 172 -44 45 -93 102 -110 126
l-30 43 -3 756 c-2 695 -4 757 -19 769 -12 9 -74 12 -224 12 l-208 0 -6 -32
c-3 -18 -4 -80 -3 -138 3 -95 1 -105 -16 -108 -28 -6 -87 58 -147 161 -64 107
-192 242 -265 278 -60 29 -188 37 -321 19 -114 -15 -136 -25 -224 -105 -41
-36 -107 -92 -148 -123 -70 -54 -74 -55 -87 -37 -21 28 -17 49 12 76 49 45
166 203 200 271 26 52 40 104 64 235 17 92 38 194 46 227 12 45 15 115 13 312
-1 140 1 254 5 254 66 0 63 2 141 -95 76 -94 120 -132 202 -174 38 -19 58 -21
208 -21 220 0 205 -16 201 219 -4 203 -8 215 -97 311 -22 25 -47 54 -55 65
-12 17 -30 21 -132 27 -164 9 -610 8 -652 -2z m24 -826 c40 -15 4 -263 -65
-453 -65 -177 -77 -204 -116 -259 -31 -44 -65 -71 -90 -72 -24 0 -14 81 22
171 19 48 44 125 56 171 33 130 99 348 121 401 20 47 35 55 72 41z m-692
-1091 c63 -60 117 -131 156 -210 50 -98 145 -215 239 -294 170 -141 188 -165
142 -190 -38 -20 -83 -1 -160 65 -85 72 -294 300 -343 372 -40 60 -104 119
-148 137 -52 23 -78 58 -85 115 l-6 52 77 0 77 0 51 -47z"/>
<path d="M8100 2330 c-109 -19 -158 -56 -229 -174 -49 -82 -59 -119 -67 -257
l-7 -124 -39 -46 c-89 -108 -89 -158 0 -282 l37 -51 3 -288 3 -287 -42 -98
c-46 -108 -53 -167 -25 -222 l17 -31 187 -2 c225 -3 284 0 297 13 6 6 10 54
10 107 0 91 -2 101 -37 172 l-36 75 -6 255 c-3 140 -1 272 4 293 6 29 26 56
78 106 72 71 85 99 75 169 -4 25 -11 34 -32 38 -14 4 -47 18 -73 31 -53 29
-64 59 -52 141 9 66 34 109 94 166 78 74 93 124 69 223 -10 39 -18 48 -53 64
-43 19 -99 22 -176 9z"/>
<path d="M7331 2293 c-34 -7 -112 -89 -144 -152 -45 -92 -32 -157 51 -237 55
-54 95 -74 151 -74 55 0 79 11 138 64 72 65 95 105 95 167 -1 56 -25 105 -89
177 -30 34 -48 46 -83 52 -47 10 -79 10 -119 3z"/>
<path d="M10391 2129 c-120 -23 -167 -47 -235 -119 -43 -46 -77 -94 -100 -144
-65 -137 -68 -159 -64 -630 l3 -421 27 -69 c73 -190 179 -273 377 -298 133
-16 181 -6 288 57 50 30 98 55 105 55 8 0 32 -18 53 -41 55 -57 89 -72 138
-65 82 13 77 -3 77 267 l0 241 37 71 c29 57 37 84 37 127 0 61 -28 146 -54
160 -9 5 -115 10 -235 11 l-219 2 -9 -29 c-5 -16 -9 -69 -10 -119 -2 -88 -1
-91 41 -168 50 -93 52 -127 16 -199 -49 -97 -92 -138 -145 -138 -44 0 -97 41
-119 93 -37 85 -42 158 -38 564 4 424 4 418 67 510 38 55 52 63 118 63 41 0
43 -1 78 -64 31 -55 37 -79 49 -177 15 -136 24 -156 72 -165 47 -9 198 3 255
19 l44 13 7 59 c23 194 -91 415 -255 494 -99 47 -279 65 -406 40z"/>
<path d="M6212 2098 c-17 -22 -32 -90 -32 -150 0 -48 7 -70 45 -142 l45 -86 0
-443 0 -443 -45 -87 c-39 -75 -45 -96 -45 -148 0 -121 38 -160 138 -140 41 8
248 12 666 12 571 1 607 2 628 19 21 17 23 27 23 117 0 89 -3 104 -30 158
l-30 60 3 180 c4 213 -16 676 -30 690 -11 13 -367 25 -390 14 -22 -12 -42
-109 -35 -175 3 -32 20 -81 45 -130 l40 -79 5 -271 4 -272 -32 -38 c-18 -22
-42 -50 -54 -64 l-20 -25 -1 60 c0 56 -2 62 -42 102 -40 41 -45 43 -99 43 -88
0 -113 -9 -175 -61 -65 -55 -90 -60 -131 -25 l-27 24 2 466 2 466 40 68 41 67
-3 120 -3 120 -246 3 c-189 2 -249 -1 -257 -10z"/>
<path d="M4485 2086 c-78 -16 -120 -35 -195 -86 -90 -61 -156 -162 -195 -300
-17 -59 -19 -109 -19 -520 -1 -515 3 -563 61 -672 91 -174 251 -249 500 -235
114 6 126 11 200 73 71 61 94 59 160 -12 l53 -57 77 7 c42 3 79 9 82 12 3 3 6
128 6 277 l0 272 31 45 c52 76 58 100 51 212 -4 64 -11 106 -19 112 -9 7 -99
10 -274 8 l-261 -3 -12 -56 c-26 -129 -9 -218 52 -281 30 -31 32 -38 32 -100
-1 -79 -30 -145 -92 -204 -74 -71 -129 -68 -191 10 -69 87 -67 67 -67 587 l0
470 28 60 c75 159 181 187 255 66 40 -65 51 -105 61 -235 6 -74 13 -111 22
-117 8 -5 88 -9 179 -9 207 0 210 1 210 100 0 196 -85 382 -218 480 -36 26
-95 60 -131 76 -59 25 -79 28 -196 30 -78 2 -154 -2 -190 -10z"/>
<path d="M8805 1764 c-169 -20 -261 -70 -332 -182 -105 -164 -113 -198 -113
-492 0 -238 11 -306 66 -410 45 -86 113 -151 202 -193 63 -30 75 -32 201 -35
163 -4 239 15 333 86 62 47 147 145 173 198 19 40 30 119 18 127 -5 3 -73 11
-151 17 -133 11 -144 11 -174 -7 -26 -15 -37 -32 -52 -78 -35 -112 -29 -105
-90 -105 -31 0 -71 7 -91 17 -30 14 -38 26 -53 72 -19 63 -23 224 -7 240 7 7
128 13 313 17 289 7 304 8 314 27 7 13 9 72 5 166 -5 157 -25 240 -82 336 -81
140 -280 222 -480 199z m113 -241 c33 -28 75 -123 80 -180 5 -59 -11 -110 -37
-117 -70 -19 -199 -12 -223 12 -19 19 -12 151 10 202 38 88 118 127 170 83z"/>
<path d="M12935 1751 c-22 -10 -67 -42 -100 -70 -32 -28 -62 -51 -66 -51 -4 0
-31 19 -61 43 l-53 42 -142 3 c-166 4 -152 16 -154 -138 -1 -93 2 -112 26
-170 27 -64 28 -68 31 -317 l2 -252 -41 -83 c-38 -77 -41 -89 -41 -163 0 -44
5 -92 11 -106 l12 -27 233 4 c210 3 234 5 246 21 10 13 12 47 10 123 -3 89 -7
114 -30 162 -27 57 -27 58 -29 325 -3 299 -3 301 66 362 62 54 121 40 168 -41
23 -42 24 -51 30 -293 7 -260 6 -273 -37 -393 -31 -85 -38 -191 -15 -237 l14
-30 230 0 c148 -1 233 3 237 10 4 5 8 60 8 121 0 106 -1 113 -35 181 l-35 71
0 254 c0 292 2 301 84 356 83 55 116 41 166 -70 18 -39 20 -66 20 -301 l0
-258 -32 -72 c-28 -63 -32 -83 -32 -162 -1 -143 -14 -135 227 -128 129 4 216
2 239 -5 28 -8 40 -7 45 1 4 7 9 66 11 132 3 96 0 132 -15 179 -22 71 -39 82
-49 31 -17 -90 -24 12 -24 348 0 421 -2 435 -81 521 -70 77 -117 96 -231 96
-140 0 -216 -26 -327 -109 -30 -23 -59 -41 -64 -41 -5 0 -39 29 -75 64 -37 35
-77 68 -89 75 -37 19 -211 14 -258 -8z"/>
<path d="M11198 1704 c-34 -14 -38 -21 -48 -72 -7 -32 -14 -68 -17 -82 l-5
-25 -11 23 c-13 28 -24 28 -32 1 -5 -15 0 -29 17 -47 42 -47 125 -166 141
-202 8 -19 45 -134 82 -255 37 -121 89 -276 115 -345 27 -69 51 -146 55 -171
11 -75 -22 -124 -153 -226 -29 -22 -41 -76 -42 -175 l0 -76 58 -4 c31 -1 153
-1 270 1 l213 3 -7 117 c-5 86 -12 126 -27 154 -15 30 -18 49 -14 88 6 45 104
313 173 470 13 31 51 134 84 229 52 152 82 215 150 325 14 24 19 54 22 150 l3
120 -30 6 c-16 4 -119 7 -227 8 -185 1 -198 0 -208 -18 -15 -30 -12 -208 5
-265 19 -63 19 -128 0 -191 -9 -27 -22 -89 -30 -137 -28 -175 -47 -211 -85
-158 -23 33 -39 119 -40 214 0 33 -7 86 -17 119 -15 56 -15 65 1 146 11 57 16
120 14 186 l-3 100 -185 2 c-148 2 -192 -1 -222 -13z"/>
</g>
</svg>
